<?xml version="1.0" standalone="no"?><!DOCTYPE svg PUBLIC "-//W3C//DTD SVG 1.1//EN" "http://www.w3.org/Graphics/SVG/1.1/DTD/svg11.dtd"><svg t="1585727444465" class="icon" viewBox="0 0 1024 1024" version="1.1" xmlns="http://www.w3.org/2000/svg" p-id="7852" xmlns:xlink="http://www.w3.org/1999/xlink" width="100%" height="100%"><defs><style type="text/css"></style></defs><path d="M512 1024a512 512 0 1 1 512-512 512 512 0 0 1-512 512z m223.418182-640.930909a46.545455 46.545455 0 0 0-65.629091 0l-230.4 230.4-85.178182-85.178182a46.545455 46.545455 0 0 0-65.629091 0 46.917818 46.917818 0 0 0 0 66.094546l117.76 117.76a46.917818 46.917818 0 0 0 66.094546 0l262.981818-262.981819a46.917818 46.917818 0 0 0 0-66.094545z" fill="#67C23A" p-id="7853"></path></svg>